<mxfile host="app.diagrams.net" modified="2021-07-26T08:59:26.057Z" agent="5.0 (Windows NT 10.0; Win64; x64) AppleWebKit/537.36 (KHTML, like Gecko) Chrome/92.0.4515.107 Safari/537.36 Edg/92.0.902.55" etag="a0jxpdY9O3XiJn0tHJMy" version="14.9.2" type="github">
  <diagram id="6eVxhd2TRdLCq7R75qMY" name="Page-1">
    <mxGraphModel dx="1249" dy="1838" grid="1" gridSize="10" guides="1" tooltips="1" connect="1" arrows="1" fold="1" page="1" pageScale="1" pageWidth="850" pageHeight="1100" math="0" shadow="0">
      <root>
        <mxCell id="0" />
        <mxCell id="1" parent="0" />
        <mxCell id="m3BJ8GWjitMkYbj-D_fS-11" style="edgeStyle=orthogonalEdgeStyle;rounded=0;orthogonalLoop=1;jettySize=auto;html=1;dashed=1;" parent="1" source="m3BJ8GWjitMkYbj-D_fS-83" target="m3BJ8GWjitMkYbj-D_fS-10" edge="1">
          <mxGeometry relative="1" as="geometry">
            <mxPoint x="218.5" y="249" as="sourcePoint" />
            <Array as="points">
              <mxPoint x="125" y="249" />
            </Array>
          </mxGeometry>
        </mxCell>
        <mxCell id="m3BJ8GWjitMkYbj-D_fS-35" value="realtime replication" style="edgeLabel;html=1;align=center;verticalAlign=middle;resizable=0;points=[];fontSize=12;" parent="m3BJ8GWjitMkYbj-D_fS-11" vertex="1" connectable="0">
          <mxGeometry x="0.2127" y="3" relative="1" as="geometry">
            <mxPoint x="-30" as="offset" />
          </mxGeometry>
        </mxCell>
        <mxCell id="JTViNeLRjHj_04MWLepB-1" style="edgeStyle=orthogonalEdgeStyle;rounded=0;orthogonalLoop=1;jettySize=auto;html=1;" parent="1" source="m3BJ8GWjitMkYbj-D_fS-10" target="m3BJ8GWjitMkYbj-D_fS-79" edge="1">
          <mxGeometry relative="1" as="geometry" />
        </mxCell>
        <mxCell id="m3BJ8GWjitMkYbj-D_fS-10" value="&lt;span style=&quot;color: rgb(0 , 0 , 0)&quot;&gt;AWS Database Migration Service&lt;/span&gt;" style="points=[[0,0,0],[0.25,0,0],[0.5,0,0],[0.75,0,0],[1,0,0],[0,1,0],[0.25,1,0],[0.5,1,0],[0.75,1,0],[1,1,0],[0,0.25,0],[0,0.5,0],[0,0.75,0],[1,0.25,0],[1,0.5,0],[1,0.75,0]];outlineConnect=0;fontColor=#232F3E;gradientColor=#4D72F3;gradientDirection=north;fillColor=#3334B9;strokeColor=#ffffff;dashed=0;verticalLabelPosition=bottom;verticalAlign=top;align=center;html=1;fontSize=12;fontStyle=0;aspect=fixed;shape=mxgraph.aws4.resourceIcon;resIcon=mxgraph.aws4.database_migration_service;" parent="1" vertex="1">
          <mxGeometry x="470" y="210" width="78" height="78" as="geometry" />
        </mxCell>
        <mxCell id="m3BJ8GWjitMkYbj-D_fS-75" value="AWS Cloud" style="outlineConnect=0;gradientColor=none;html=1;whiteSpace=wrap;fontSize=12;fontStyle=0;shape=mxgraph.aws4.group;grIcon=mxgraph.aws4.group_aws_cloud;strokeColor=#AAB7B8;fillColor=none;verticalAlign=top;align=left;spacingLeft=30;fontColor=#AAB7B8;dashed=0;" parent="1" vertex="1">
          <mxGeometry x="340" y="-60" width="550" height="374" as="geometry" />
        </mxCell>
        <mxCell id="JTViNeLRjHj_04MWLepB-3" value="" style="edgeStyle=orthogonalEdgeStyle;rounded=0;orthogonalLoop=1;jettySize=auto;html=1;startArrow=classic;startFill=1;" parent="1" source="m3BJ8GWjitMkYbj-D_fS-79" target="JTViNeLRjHj_04MWLepB-2" edge="1">
          <mxGeometry relative="1" as="geometry" />
        </mxCell>
        <mxCell id="m3BJ8GWjitMkYbj-D_fS-79" value="&lt;span style=&quot;color: rgb(0 , 0 , 0)&quot;&gt;AWS Redshift&lt;/span&gt;" style="points=[[0,0,0],[0.25,0,0],[0.5,0,0],[0.75,0,0],[1,0,0],[0,1,0],[0.25,1,0],[0.5,1,0],[0.75,1,0],[1,1,0],[0,0.25,0],[0,0.5,0],[0,0.75,0],[1,0.25,0],[1,0.5,0],[1,0.75,0]];outlineConnect=0;fontColor=#232F3E;gradientColor=#945DF2;gradientDirection=north;fillColor=#5A30B5;strokeColor=#ffffff;dashed=0;verticalLabelPosition=bottom;verticalAlign=top;align=center;html=1;fontSize=12;fontStyle=0;aspect=fixed;shape=mxgraph.aws4.resourceIcon;resIcon=mxgraph.aws4.redshift;" parent="1" vertex="1">
          <mxGeometry x="620" y="78" width="78" height="78" as="geometry" />
        </mxCell>
        <mxCell id="m3BJ8GWjitMkYbj-D_fS-80" value="AWS Direct Connect" style="points=[[0,0,0],[0.25,0,0],[0.5,0,0],[0.75,0,0],[1,0,0],[0,1,0],[0.25,1,0],[0.5,1,0],[0.75,1,0],[1,1,0],[0,0.25,0],[0,0.5,0],[0,0.75,0],[1,0.25,0],[1,0.5,0],[1,0.75,0]];outlineConnect=0;fontColor=#232F3E;gradientColor=#945DF2;gradientDirection=north;fillColor=#5A30B5;strokeColor=#ffffff;dashed=0;verticalLabelPosition=bottom;verticalAlign=top;align=center;html=1;fontSize=12;fontStyle=0;aspect=fixed;shape=mxgraph.aws4.resourceIcon;resIcon=mxgraph.aws4.direct_connect;" parent="1" vertex="1">
          <mxGeometry x="231.5" y="140" width="70" height="70" as="geometry" />
        </mxCell>
        <mxCell id="m3BJ8GWjitMkYbj-D_fS-82" value="On-Premise" style="outlineConnect=0;gradientColor=none;html=1;whiteSpace=wrap;fontSize=12;fontStyle=0;shape=mxgraph.aws4.group;grIcon=mxgraph.aws4.group_on_premise;strokeColor=#858B94;fillColor=none;verticalAlign=top;align=left;spacingLeft=30;fontColor=#858B94;dashed=0;" parent="1" vertex="1">
          <mxGeometry x="75.5" y="-60" width="114.5" height="374" as="geometry" />
        </mxCell>
        <mxCell id="m3BJ8GWjitMkYbj-D_fS-83" value="Oracle 11g" style="outlineConnect=0;fontColor=#232F3E;gradientColor=none;fillColor=#232F3E;strokeColor=none;dashed=0;verticalLabelPosition=bottom;verticalAlign=top;align=center;html=1;fontSize=12;fontStyle=0;aspect=fixed;pointerEvents=1;shape=mxgraph.aws4.generic_database;" parent="1" vertex="1">
          <mxGeometry x="95.25" y="78" width="59" height="78" as="geometry" />
        </mxCell>
        <mxCell id="m3BJ8GWjitMkYbj-D_fS-86" value="" style="edgeStyle=orthogonalEdgeStyle;rounded=1;orthogonalLoop=1;jettySize=auto;html=1;fontSize=12;startArrow=none;startFill=0;" parent="1" source="m3BJ8GWjitMkYbj-D_fS-84" target="m3BJ8GWjitMkYbj-D_fS-79" edge="1">
          <mxGeometry relative="1" as="geometry" />
        </mxCell>
        <mxCell id="m3BJ8GWjitMkYbj-D_fS-87" value="" style="edgeStyle=orthogonalEdgeStyle;rounded=1;orthogonalLoop=1;jettySize=auto;html=1;fontSize=12;startArrow=none;startFill=0;" parent="1" source="m3BJ8GWjitMkYbj-D_fS-84" edge="1">
          <mxGeometry relative="1" as="geometry">
            <mxPoint x="420" y="117" as="targetPoint" />
          </mxGeometry>
        </mxCell>
        <mxCell id="m3BJ8GWjitMkYbj-D_fS-84" value="AWS Glue" style="points=[[0,0,0],[0.25,0,0],[0.5,0,0],[0.75,0,0],[1,0,0],[0,1,0],[0.25,1,0],[0.5,1,0],[0.75,1,0],[1,1,0],[0,0.25,0],[0,0.5,0],[0,0.75,0],[1,0.25,0],[1,0.5,0],[1,0.75,0]];outlineConnect=0;fontColor=#232F3E;gradientColor=#945DF2;gradientDirection=north;fillColor=#5A30B5;strokeColor=#ffffff;dashed=0;verticalLabelPosition=bottom;verticalAlign=top;align=center;html=1;fontSize=12;fontStyle=0;aspect=fixed;shape=mxgraph.aws4.resourceIcon;resIcon=mxgraph.aws4.glue;" parent="1" vertex="1">
          <mxGeometry x="470" y="78" width="78" height="78" as="geometry" />
        </mxCell>
        <mxCell id="m3BJ8GWjitMkYbj-D_fS-88" value="" style="edgeStyle=orthogonalEdgeStyle;rounded=1;orthogonalLoop=1;jettySize=auto;html=1;fontSize=12;startArrow=classic;startFill=1;dashed=1;" parent="1" target="m3BJ8GWjitMkYbj-D_fS-83" edge="1">
          <mxGeometry relative="1" as="geometry">
            <mxPoint x="380" y="117" as="sourcePoint" />
          </mxGeometry>
        </mxCell>
        <mxCell id="m3BJ8GWjitMkYbj-D_fS-89" value="JDBC" style="edgeLabel;html=1;align=center;verticalAlign=middle;resizable=0;points=[];fontSize=14;fontStyle=2" parent="m3BJ8GWjitMkYbj-D_fS-88" vertex="1" connectable="0">
          <mxGeometry x="0.1783" y="-4" relative="1" as="geometry">
            <mxPoint x="20" as="offset" />
          </mxGeometry>
        </mxCell>
        <mxCell id="JTViNeLRjHj_04MWLepB-2" value="S3 bucket" style="points=[[0,0,0],[0.25,0,0],[0.5,0,0],[0.75,0,0],[1,0,0],[0,1,0],[0.25,1,0],[0.5,1,0],[0.75,1,0],[1,1,0],[0,0.25,0],[0,0.5,0],[0,0.75,0],[1,0.25,0],[1,0.5,0],[1,0.75,0]];outlineConnect=0;fontColor=#232F3E;gradientColor=#60A337;gradientDirection=north;fillColor=#277116;strokeColor=#ffffff;dashed=0;verticalLabelPosition=bottom;verticalAlign=top;align=center;html=1;fontSize=12;fontStyle=0;aspect=fixed;shape=mxgraph.aws4.resourceIcon;resIcon=mxgraph.aws4.s3;" parent="1" vertex="1">
          <mxGeometry x="780" y="78" width="78" height="78" as="geometry" />
        </mxCell>
        <mxCell id="JTViNeLRjHj_04MWLepB-4" value="" style="outlineConnect=0;dashed=0;verticalLabelPosition=bottom;verticalAlign=top;align=center;html=1;shape=mxgraph.aws3.users;fillColor=#D2D3D3;gradientColor=none;" parent="1" vertex="1">
          <mxGeometry x="356.5" y="-226.5" width="66" height="63" as="geometry" />
        </mxCell>
        <mxCell id="R6bODk6WetKb1Frni5NR-12" value="" style="edgeStyle=orthogonalEdgeStyle;rounded=0;orthogonalLoop=1;jettySize=auto;html=1;startArrow=classic;startFill=1;entryX=0.25;entryY=0;entryDx=0;entryDy=0;entryPerimeter=0;" edge="1" parent="1" source="JTViNeLRjHj_04MWLepB-6" target="R6bODk6WetKb1Frni5NR-10">
          <mxGeometry relative="1" as="geometry">
            <Array as="points">
              <mxPoint x="410" y="-80" />
              <mxPoint x="492" y="-80" />
            </Array>
          </mxGeometry>
        </mxCell>
        <mxCell id="JTViNeLRjHj_04MWLepB-6" value="Business Users" style="rounded=1;arcSize=10;dashed=1;fillColor=none;gradientColor=none;dashPattern=1 1;strokeWidth=2;verticalAlign=top;" parent="1" vertex="1">
          <mxGeometry x="314" y="-260" width="151" height="130" as="geometry" />
        </mxCell>
        <mxCell id="R6bODk6WetKb1Frni5NR-13" value="" style="edgeStyle=orthogonalEdgeStyle;rounded=0;orthogonalLoop=1;jettySize=auto;html=1;startArrow=classic;startFill=1;entryX=0.75;entryY=0;entryDx=0;entryDy=0;entryPerimeter=0;" edge="1" parent="1" source="JTViNeLRjHj_04MWLepB-8" target="R6bODk6WetKb1Frni5NR-10">
          <mxGeometry relative="1" as="geometry">
            <Array as="points">
              <mxPoint x="619" y="-80" />
              <mxPoint x="531" y="-80" />
            </Array>
          </mxGeometry>
        </mxCell>
        <mxCell id="JTViNeLRjHj_04MWLepB-8" value="Applications" style="rounded=1;arcSize=10;dashed=1;fillColor=none;gradientColor=none;dashPattern=1 1;strokeWidth=2;verticalAlign=top;" parent="1" vertex="1">
          <mxGeometry x="504" y="-260" width="230" height="130" as="geometry" />
        </mxCell>
        <mxCell id="JTViNeLRjHj_04MWLepB-9" value="&lt;br&gt;&lt;br&gt;" style="outlineConnect=0;gradientColor=none;fontColor=#545B64;strokeColor=none;fillColor=#879196;dashed=0;verticalLabelPosition=bottom;verticalAlign=top;align=center;html=1;fontSize=12;fontStyle=0;aspect=fixed;shape=mxgraph.aws4.illustration_desktop;pointerEvents=1" parent="1" vertex="1">
          <mxGeometry x="524" y="-216.5" width="50.55" height="46" as="geometry" />
        </mxCell>
        <mxCell id="JTViNeLRjHj_04MWLepB-10" value="&lt;br&gt;&lt;br&gt;" style="outlineConnect=0;gradientColor=none;fontColor=#545B64;strokeColor=none;fillColor=#879196;dashed=0;verticalLabelPosition=bottom;verticalAlign=top;align=center;html=1;fontSize=12;fontStyle=0;aspect=fixed;shape=mxgraph.aws4.illustration_desktop;pointerEvents=1" parent="1" vertex="1">
          <mxGeometry x="594" y="-216.5" width="50.55" height="46" as="geometry" />
        </mxCell>
        <mxCell id="JTViNeLRjHj_04MWLepB-11" value="&lt;br&gt;&lt;br&gt;" style="outlineConnect=0;gradientColor=none;fontColor=#545B64;strokeColor=none;fillColor=#879196;dashed=0;verticalLabelPosition=bottom;verticalAlign=top;align=center;html=1;fontSize=12;fontStyle=0;aspect=fixed;shape=mxgraph.aws4.illustration_desktop;pointerEvents=1" parent="1" vertex="1">
          <mxGeometry x="661.45" y="-216.5" width="50.55" height="46" as="geometry" />
        </mxCell>
        <mxCell id="JTViNeLRjHj_04MWLepB-13" value="1" style="ellipse;whiteSpace=wrap;html=1;aspect=fixed;strokeWidth=2;fontFamily=Tahoma;spacingBottom=4;spacingRight=2;strokeColor=#d3d3d3;verticalAlign=middle;" parent="1" vertex="1">
          <mxGeometry x="257" y="80" width="20" height="20" as="geometry" />
        </mxCell>
        <mxCell id="JTViNeLRjHj_04MWLepB-14" value="2" style="ellipse;whiteSpace=wrap;html=1;aspect=fixed;strokeWidth=2;fontFamily=Tahoma;spacingBottom=4;spacingRight=2;strokeColor=#d3d3d3;verticalAlign=middle;" parent="1" vertex="1">
          <mxGeometry x="391" y="75" width="20" height="20" as="geometry" />
        </mxCell>
        <mxCell id="JTViNeLRjHj_04MWLepB-15" value="3" style="ellipse;whiteSpace=wrap;html=1;aspect=fixed;strokeWidth=2;fontFamily=Tahoma;spacingBottom=4;spacingRight=2;strokeColor=#d3d3d3;verticalAlign=middle;" parent="1" vertex="1">
          <mxGeometry x="570" y="90" width="20" height="20" as="geometry" />
        </mxCell>
        <mxCell id="JTViNeLRjHj_04MWLepB-18" value="4" style="ellipse;whiteSpace=wrap;html=1;aspect=fixed;strokeWidth=2;fontFamily=Tahoma;spacingBottom=4;spacingRight=2;strokeColor=#d3d3d3;verticalAlign=middle;" parent="1" vertex="1">
          <mxGeometry x="730" y="90" width="20" height="20" as="geometry" />
        </mxCell>
        <mxCell id="JTViNeLRjHj_04MWLepB-19" value="5" style="ellipse;whiteSpace=wrap;html=1;aspect=fixed;strokeWidth=2;fontFamily=Tahoma;spacingBottom=4;spacingRight=2;strokeColor=#d3d3d3;verticalAlign=middle;" parent="1" vertex="1">
          <mxGeometry x="257" y="260" width="20" height="20" as="geometry" />
        </mxCell>
        <mxCell id="JTViNeLRjHj_04MWLepB-20" value="6" style="ellipse;whiteSpace=wrap;html=1;aspect=fixed;strokeWidth=2;fontFamily=Tahoma;spacingBottom=4;spacingRight=2;strokeColor=#d3d3d3;verticalAlign=middle;" parent="1" vertex="1">
          <mxGeometry x="570" y="259" width="20" height="20" as="geometry" />
        </mxCell>
        <mxCell id="JTViNeLRjHj_04MWLepB-21" value="8" style="ellipse;whiteSpace=wrap;html=1;aspect=fixed;strokeWidth=2;fontFamily=Tahoma;spacingBottom=4;spacingRight=2;strokeColor=#d3d3d3;verticalAlign=middle;align=center;" parent="1" vertex="1">
          <mxGeometry x="422.5" y="-112" width="20" height="20" as="geometry" />
        </mxCell>
        <mxCell id="JTViNeLRjHj_04MWLepB-22" value="9" style="ellipse;whiteSpace=wrap;html=1;aspect=fixed;strokeWidth=2;fontFamily=Tahoma;spacingBottom=4;spacingRight=2;strokeColor=#d3d3d3;align=center;verticalAlign=middle;" parent="1" vertex="1">
          <mxGeometry x="590" y="-112" width="20" height="20" as="geometry" />
        </mxCell>
        <mxCell id="R6bODk6WetKb1Frni5NR-5" value="" style="edgeStyle=orthogonalEdgeStyle;rounded=0;orthogonalLoop=1;jettySize=auto;html=1;startArrow=classic;startFill=1;" edge="1" parent="1" source="R6bODk6WetKb1Frni5NR-3" target="m3BJ8GWjitMkYbj-D_fS-79">
          <mxGeometry relative="1" as="geometry" />
        </mxCell>
        <mxCell id="R6bODk6WetKb1Frni5NR-11" value="" style="edgeStyle=orthogonalEdgeStyle;rounded=0;orthogonalLoop=1;jettySize=auto;html=1;startArrow=classic;startFill=1;" edge="1" parent="1" source="R6bODk6WetKb1Frni5NR-3" target="R6bODk6WetKb1Frni5NR-10">
          <mxGeometry relative="1" as="geometry" />
        </mxCell>
        <mxCell id="R6bODk6WetKb1Frni5NR-3" value="" style="outlineConnect=0;fontColor=#232F3E;gradientColor=none;fillColor=#5A30B5;strokeColor=none;dashed=0;verticalLabelPosition=bottom;verticalAlign=top;align=center;html=1;fontSize=12;fontStyle=0;aspect=fixed;pointerEvents=1;shape=mxgraph.aws4.endpoints;" vertex="1" parent="1">
          <mxGeometry x="634" width="50" height="50" as="geometry" />
        </mxCell>
        <mxCell id="R6bODk6WetKb1Frni5NR-9" value="AWS ENI" style="outlineConnect=0;fontColor=#232F3E;gradientColor=none;fillColor=#5A30B5;strokeColor=none;dashed=0;verticalLabelPosition=bottom;verticalAlign=top;align=center;html=1;fontSize=12;fontStyle=0;aspect=fixed;pointerEvents=1;shape=mxgraph.aws4.elastic_network_interface;" vertex="1" parent="1">
          <mxGeometry x="381" y="97" width="40" height="40" as="geometry" />
        </mxCell>
        <mxCell id="R6bODk6WetKb1Frni5NR-10" value="" style="points=[[0,0,0],[0.25,0,0],[0.5,0,0],[0.75,0,0],[1,0,0],[0,1,0],[0.25,1,0],[0.5,1,0],[0.75,1,0],[1,1,0],[0,0.25,0],[0,0.5,0],[0,0.75,0],[1,0.25,0],[1,0.5,0],[1,0.75,0]];outlineConnect=0;fontColor=#232F3E;gradientColor=#945DF2;gradientDirection=north;fillColor=#5A30B5;strokeColor=#ffffff;dashed=0;verticalLabelPosition=bottom;verticalAlign=top;align=center;html=1;fontSize=12;fontStyle=0;aspect=fixed;shape=mxgraph.aws4.resourceIcon;resIcon=mxgraph.aws4.api_gateway;" vertex="1" parent="1">
          <mxGeometry x="472" y="-14" width="78" height="78" as="geometry" />
        </mxCell>
        <mxCell id="R6bODk6WetKb1Frni5NR-15" value="7" style="ellipse;whiteSpace=wrap;html=1;aspect=fixed;strokeWidth=2;fontFamily=Tahoma;spacingBottom=4;spacingRight=2;strokeColor=#d3d3d3;align=center;verticalAlign=middle;" vertex="1" parent="1">
          <mxGeometry x="580" width="20" height="20" as="geometry" />
        </mxCell>
      </root>
    </mxGraphModel>
  </diagram>
</mxfile>
